<svg width="128" height="42.33" viewBox="0 0 727 220" fill="none" xmlns="http://www.w3.org/2000/svg">
<path d="M10.4985 10.6298H18.3724V80.0512H92.5184V88.0563H10.4985V10.6298ZM3.28079 95.4053H99.7362V72.7022H25.7214V3.28079H3.28079V95.4053ZM0 0H29.0022L41.7319 13.5168V69.4215H103.017L115.746 82.9383V111.416H13.5168L0 98.6861V0ZM188.793 80.0512C193.867 80.0512 198.592 79.5263 202.966 78.4764C207.428 77.3389 211.277 75.5893 214.514 73.2272C217.839 70.7773 220.42 67.6278 222.257 63.7785C224.094 59.8416 225.013 55.0295 225.013 49.343C225.013 43.7438 224.051 38.9758 222.126 35.0388C220.288 31.1019 217.751 27.9523 214.514 25.5901C211.277 23.1405 207.428 21.3907 202.966 20.3409C198.592 19.2035 193.867 18.6349 188.793 18.6349H174.357C169.196 18.6349 164.384 19.2035 159.922 20.3409C155.548 21.3907 151.742 23.1405 148.505 25.5901C145.268 27.9523 142.687 31.1019 140.762 35.0388C138.925 38.9758 138.006 43.7438 138.006 49.343C138.006 55.0295 138.925 59.8416 140.762 63.7785C142.687 67.6278 145.268 70.7773 148.505 73.2272C151.742 75.677 155.548 77.4266 159.922 78.4764C164.384 79.5263 169.196 80.0512 174.357 80.0512H188.793ZM174.357 72.7022C170.42 72.7022 166.702 72.3086 163.203 71.5212C159.703 70.7338 156.641 69.465 154.017 67.7155C151.392 65.8782 149.292 63.4725 147.717 60.4977C146.143 57.5229 145.355 53.8049 145.355 49.343C145.355 44.9687 146.143 41.2942 147.717 38.3196C149.292 35.345 151.392 32.9391 154.017 31.1019C156.729 29.2646 159.834 27.9523 163.334 27.1649C166.834 26.3775 170.508 25.9838 174.357 25.9838H188.793C192.642 25.9838 196.317 26.3775 199.816 27.1649C203.316 27.9523 206.378 29.2646 209.003 31.1019C211.627 32.9391 213.727 35.345 215.302 38.3196C216.876 41.2942 217.664 44.9687 217.664 49.343C217.664 53.7172 216.876 57.3917 215.302 60.3665C213.815 63.3413 211.758 65.747 209.134 67.5842C206.509 69.4215 203.447 70.7338 199.948 71.5212C196.448 72.3086 192.73 72.7022 188.793 72.7022H174.357ZM129.739 49.343C129.739 42.2565 130.832 36.2636 133.019 31.3643C135.294 26.465 138.4 22.4843 142.337 19.4223C146.362 16.2727 151.086 14.0418 156.51 12.7295C162.022 11.3296 167.971 10.6298 174.357 10.6298H188.793C195.18 10.6298 201.085 11.3296 206.509 12.7295C211.933 14.1293 216.614 16.3602 220.551 19.4223C224.576 22.4843 227.681 26.465 229.868 31.3643C232.143 36.2636 233.28 42.2565 233.28 49.343C233.28 56.4295 232.143 62.4227 229.868 67.3218C227.681 72.2209 224.576 76.202 220.551 79.2638C216.614 82.3257 211.933 84.5566 206.509 85.9566C201.085 87.3566 195.18 88.0563 188.793 88.0563H174.357C167.971 88.0563 162.022 87.4002 156.51 86.0879C151.086 84.6879 146.362 82.4569 142.337 79.3951C138.4 76.2455 135.294 72.2209 133.019 67.3218C130.832 62.4227 129.739 56.4295 129.739 49.343ZM122.39 49.343C122.39 57.6542 123.658 64.7407 126.195 70.6026C128.82 76.3767 132.407 81.1011 136.956 84.7756C141.593 88.45 147.061 91.1624 153.36 92.9119C159.747 94.5744 166.746 95.4053 174.357 95.4053H188.793C196.404 95.4053 203.36 94.5744 209.659 92.9119C215.958 91.1624 221.382 88.45 225.931 84.7756C230.568 81.1011 234.155 76.3767 236.692 70.6026C239.229 64.7407 240.498 57.6542 240.498 49.343C240.498 41.0317 239.229 33.989 236.692 28.2148C234.155 22.3531 230.568 17.585 225.931 13.9105C221.382 10.2361 215.958 7.5677 209.659 5.90542C203.36 4.15568 196.404 3.28079 188.793 3.28079H174.357C166.746 3.28079 159.747 4.15568 153.36 5.90542C147.061 7.5677 141.593 10.2361 136.956 13.9105C132.407 17.585 128.82 22.3531 126.195 28.2148C123.658 33.989 122.39 41.0317 122.39 49.343ZM119.109 49.343C119.109 40.4193 120.465 32.8516 123.177 26.64C125.889 20.3409 129.695 15.2229 134.594 11.2859C139.493 7.34896 145.312 4.5056 152.048 2.75586C158.872 0.918621 166.309 0 174.357 0H188.793C193.867 0 198.635 0.306187 203.097 0.918621C207.647 1.44355 212.109 2.62463 216.483 4.46187C220.857 6.21161 225.188 8.74879 229.475 12.0733C233.849 15.3104 238.355 19.6847 242.991 25.1964C246.928 29.1334 250.166 34.3389 252.703 40.813C255.24 47.2871 256.508 54.5046 256.508 62.4662C256.508 71.3023 255.152 78.8266 252.44 85.038C249.815 91.2494 246.053 96.2804 241.154 100.13C236.342 104.067 230.568 106.91 223.832 108.66C217.182 110.497 209.878 111.416 201.916 111.416H187.481C178.557 111.416 170.246 110.409 162.547 108.397C154.847 106.385 148.505 102.929 143.518 98.0299C138.531 93.6557 134.463 89.5434 131.313 85.6942C128.164 81.7572 125.67 77.8638 123.833 74.0146C122.084 70.1653 120.858 66.2284 120.159 62.2037C119.459 58.1791 119.109 53.8926 119.109 49.343ZM188.793 69.4215C192.205 69.4215 195.442 69.1155 198.504 68.5028C201.654 67.8031 204.409 66.6656 206.772 65.0908C209.134 63.516 210.971 61.4599 212.283 58.9229C213.683 56.2983 214.383 53.105 214.383 49.343C214.383 47.2433 214.121 45.3186 213.596 43.5689C210.009 42.519 206.115 41.9941 201.916 41.9941H187.481C183.981 41.9941 180.656 42.3441 177.507 43.0439C174.357 43.7438 171.558 44.8812 169.108 46.456C166.746 48.0307 164.865 50.1304 163.465 52.7551C162.065 55.3797 161.365 58.6169 161.365 62.4662C161.365 64.5659 161.54 66.3155 161.89 67.7155C163.728 68.3281 165.696 68.7653 167.796 69.0278C169.896 69.2902 172.083 69.4215 174.357 69.4215H188.793ZM267.134 10.6298H278.682L316.739 48.0307L354.14 10.6298H365.557L320.676 55.3797V88.0563H312.54V55.5109L267.134 10.6298ZM328.025 95.4053V58.398L383.011 3.28079H351.253L316.608 38.1884L281.438 3.28079H249.418L305.322 58.6605V95.4053H328.025ZM302.041 59.9728C297.317 55.3361 292.374 50.4804 287.212 45.4061C282.138 40.3318 276.976 35.2138 271.727 30.052C266.478 24.8028 261.273 19.641 256.11 14.5667C250.949 9.49239 246.05 4.63683 241.413 0H282.75L316.477 33.5953L349.81 0H391.016L403.221 13.5168L344.036 72.7022V111.416H315.558L302.041 98.6861V59.9728ZM426.564 45.4061H493.361V53.28H426.564V88.0563H418.428V10.6298H506.878V18.6349H426.564V45.4061ZM433.782 25.9838H514.227V3.28079H411.079V95.4053H433.782V60.4977H500.579V38.1884H433.782V25.9838ZM407.798 98.6861V0H517.507L530.237 13.5168V41.9941H510.158L516.589 48.4244V76.508H449.792V111.416H421.315L407.798 98.6861ZM556.042 88.0563V10.6298H563.916V88.0563H556.042ZM571.134 95.4053V3.28079H548.825V95.4053H571.134ZM545.544 98.6861V0H574.414L587.143 13.5168V111.416H559.061L545.544 98.6861ZM697.079 88.0563L626.345 23.0967V88.0563H618.603V10.6298H625.296L695.767 75.5893V10.6298H703.641V88.0563H697.079ZM710.99 95.4053V3.28079H688.549V59.0542L627.789 3.28079H611.254V95.4053H633.694V39.5007L694.586 95.4053H710.99ZM607.973 98.6861V0H628.97L685.268 51.574V0H714.271L727 13.5168V111.416H706.528L649.705 59.3166V111.416H621.49L607.973 98.6861Z" fill="#00D09C"/>
<path d="M220.26 208.611L219.973 206.749C221.66 206.463 222.677 206.145 223.028 205.795C223.409 205.445 223.6 204.777 223.6 203.791V180.36C223.6 179.374 223.409 178.706 223.028 178.356C222.677 178.006 221.66 177.688 219.973 177.401L220.26 175.54H231.951L232.142 177.401L229.183 177.974C228.547 178.101 228.229 178.515 228.229 179.215V206.177L232.476 206.129C236.007 206.065 238.076 205.954 238.68 205.795C239.189 205.636 240.08 203.186 241.352 198.446L243.977 198.685C244.008 199.226 244.025 200.339 244.025 202.025C244.025 203.679 243.85 205.874 243.5 208.611H220.26ZM256.7 209.04C253.264 209.04 250.624 208.022 248.778 205.986C246.933 203.95 246.01 201.102 246.01 197.444C246.01 193.786 246.981 190.858 248.921 188.663C250.894 186.437 253.598 185.323 257.034 185.323C260.502 185.323 263.158 186.357 265.003 188.425C266.849 190.461 267.771 193.308 267.771 196.967C267.771 200.625 266.785 203.552 264.812 205.747C262.872 207.942 260.168 209.04 256.7 209.04ZM250.639 196.824C250.639 199.655 251.212 201.977 252.357 203.791C253.502 205.604 255.062 206.511 257.034 206.511C259.006 206.511 260.406 206.034 261.233 205.079C261.806 204.443 262.268 203.441 262.617 202.073C262.967 200.673 263.142 199.162 263.142 197.539C263.142 194.708 262.569 192.386 261.424 190.572C260.279 188.759 258.72 187.852 256.747 187.852C254.775 187.852 253.375 188.329 252.548 189.284C251.975 189.92 251.514 190.938 251.164 192.338C250.815 193.706 250.639 195.201 250.639 196.824ZM270.66 214.194C271.423 214.289 272.473 214.337 273.809 214.337C275.177 214.337 276.259 214.162 277.054 213.812C277.849 213.494 278.804 211.76 279.918 208.611L271.996 189.618C271.741 189.014 271.503 188.632 271.28 188.472C271.089 188.313 270.484 188.122 269.467 187.9L269.753 186.039H279.583L279.774 187.9L276.863 188.616C276.64 188.647 276.529 188.775 276.529 188.997C276.529 189.029 276.593 189.236 276.72 189.618L281.588 202.359C281.746 202.805 281.826 203.297 281.826 203.838H282.208L287.267 190.715C287.457 190.207 287.553 189.793 287.553 189.475C287.553 189.124 287.314 188.838 286.837 188.616C286.391 188.393 285.58 188.155 284.403 187.9L284.69 186.039H293.184L293.375 187.9C291.975 188.218 291.227 188.489 291.132 188.711L283.592 207.418C282.956 209.008 282.447 210.217 282.065 211.044C281.683 211.903 281.158 212.858 280.49 213.908C279.822 214.957 279.122 215.769 278.39 216.341C276.577 217.709 274.382 218.616 271.805 219.061C270.978 218.234 270.564 216.93 270.564 215.148C270.564 214.957 270.596 214.639 270.66 214.194ZM295.14 202.741C295.14 200.355 296.158 198.573 298.195 197.396C300.23 196.219 303.539 195.614 308.12 195.583V194.056C308.12 189.92 306.625 187.852 303.635 187.852C302.203 187.852 301.296 188.059 300.915 188.472C300.564 188.886 300.183 190.238 299.769 192.529L297.192 192.242C296.938 191.256 296.811 190.238 296.811 189.188C296.811 188.107 296.826 187.406 296.858 187.089C298.735 185.912 301.201 185.323 304.255 185.323C307.309 185.323 309.424 185.912 310.602 187.089C311.81 188.265 312.415 190.207 312.415 192.91V203.886C312.415 204.714 312.606 205.302 312.988 205.652C313.401 205.97 314.42 206.288 316.042 206.606L315.756 208.133L310.029 208.754C309.711 208.754 309.377 208.451 309.027 207.847C308.677 207.243 308.502 206.686 308.502 206.177C308.502 205.636 308.518 205.238 308.55 204.984L308.168 204.841L307.595 205.7C306.1 207.926 304.048 209.04 301.44 209.04C299.658 209.04 298.162 208.483 296.954 207.37C295.745 206.256 295.14 204.714 295.14 202.741ZM299.769 202.311C299.769 203.457 300.071 204.332 300.676 204.936C301.28 205.509 302.139 205.795 303.253 205.795C304.366 205.795 305.623 205.254 307.023 204.173C307.754 203.6 308.12 202.996 308.12 202.359V197.683C305.257 197.746 303.141 198.128 301.774 198.828C300.437 199.528 299.769 200.689 299.769 202.311ZM319.464 208.611L319.178 206.749C320.737 206.431 321.675 206.113 321.993 205.795C322.344 205.445 322.518 204.857 322.518 204.029V176.304C322.518 175.636 322.264 175.158 321.755 174.872C321.246 174.554 320.292 174.252 318.892 173.965L319.178 172.438C322.582 171.993 324.952 171.77 326.288 171.77L326.813 172.247V205.175C326.813 205.556 326.893 205.811 327.052 205.938C327.243 206.034 327.481 206.113 327.768 206.177L330.106 206.749L329.915 208.611H319.464ZM336.058 202.073V188.95H332.957L332.766 186.898L335.104 186.325C335.708 186.166 336.106 185.816 336.297 185.275C336.519 184.703 336.901 182.921 337.442 179.93L340.353 179.644V186.039H346.986L346.605 188.282L340.353 188.997V200.641C340.353 203.95 341.371 205.604 343.407 205.604C344.553 205.604 345.762 205.127 347.034 204.173L348.036 205.556C346.318 207.879 344.219 209.04 341.737 209.04C339.955 209.04 338.556 208.42 337.538 207.179C336.552 205.938 336.058 204.236 336.058 202.073ZM350.07 214.194C350.833 214.289 351.883 214.337 353.219 214.337C354.587 214.337 355.669 214.162 356.464 213.812C357.259 213.494 358.214 211.76 359.328 208.611L351.406 189.618C351.151 189.014 350.913 188.632 350.69 188.472C350.499 188.313 349.894 188.122 348.877 187.9L349.163 186.039H358.993L359.184 187.9L356.273 188.616C356.05 188.647 355.939 188.775 355.939 188.997C355.939 189.029 356.003 189.236 356.13 189.618L360.998 202.359C361.156 202.805 361.236 203.297 361.236 203.838H361.618L366.676 190.715C366.867 190.207 366.963 189.793 366.963 189.475C366.963 189.124 366.724 188.838 366.247 188.616C365.801 188.393 364.99 188.155 363.813 187.9L364.1 186.039H372.594L372.785 187.9C371.385 188.218 370.637 188.489 370.542 188.711L363.002 207.418C362.366 209.008 361.857 210.217 361.475 211.044C361.093 211.903 360.568 212.858 359.9 213.908C359.232 214.957 358.532 215.769 357.8 216.341C355.987 217.709 353.792 218.616 351.215 219.061C350.388 218.234 349.974 216.93 349.974 215.148C349.974 214.957 350.006 214.639 350.07 214.194ZM386.486 208.611L386.2 206.749C387.758 206.431 388.697 206.113 389.015 205.795C389.365 205.445 389.54 204.857 389.54 204.029V190.334C389.54 189.665 389.285 189.188 388.776 188.902C388.268 188.584 387.313 188.282 385.913 187.995L386.2 186.468C389.604 186.023 391.974 185.8 393.31 185.8L393.835 186.277V205.175C393.835 205.556 393.914 205.811 394.073 205.938C394.264 206.034 394.503 206.113 394.789 206.177L397.128 206.749L396.937 208.611H386.486ZM393.883 177.306C393.883 178.101 393.628 178.769 393.119 179.31C392.642 179.851 391.99 180.121 391.162 180.121C390.367 180.121 389.699 179.883 389.158 179.406C388.649 178.928 388.395 178.276 388.395 177.449C388.395 176.59 388.633 175.906 389.11 175.397C389.619 174.888 390.304 174.634 391.162 174.634C392.976 174.634 393.883 175.524 393.883 177.306ZM409.705 187.852C406.905 187.852 405.506 188.807 405.506 190.715C405.506 191.479 405.697 192.051 406.079 192.433C406.461 192.783 406.731 193.054 406.89 193.245C407.081 193.404 407.43 193.61 407.94 193.865C408.449 194.12 408.799 194.31 408.99 194.438C409.212 194.533 409.642 194.708 410.278 194.962C412.95 196.076 414.827 197.126 415.909 198.112C416.991 199.098 417.532 200.498 417.532 202.311C417.532 204.125 416.72 205.7 415.098 207.036C413.507 208.372 411.312 209.04 408.512 209.04C407.272 209.04 405.983 208.913 404.647 208.658C403.311 208.404 402.34 208.149 401.736 207.895C401.672 207.481 401.641 206.638 401.641 205.366C401.641 204.093 401.784 202.709 402.07 201.214L404.552 201.023C404.774 203.059 404.933 204.316 405.029 204.793C405.156 205.238 405.331 205.525 405.554 205.652C406.571 206.225 407.908 206.511 409.562 206.511C412.139 206.511 413.428 205.477 413.428 203.409C413.428 202.423 413.046 201.612 412.282 200.975C411.423 200.276 410.437 199.687 409.324 199.21C406.397 198 404.392 196.903 403.311 195.917C402.261 194.899 401.736 193.499 401.736 191.717C401.736 189.936 402.547 188.425 404.17 187.184C405.792 185.943 407.749 185.323 410.04 185.323C412.33 185.323 414.43 185.721 416.339 186.516C416.37 186.771 416.386 187.486 416.386 188.663C416.386 189.84 416.179 191.081 415.766 192.386L413.571 192.624C413.348 190.143 412.982 188.727 412.473 188.377C411.996 188.027 411.073 187.852 409.705 187.852ZM433.93 208.611L433.644 206.749C435.33 206.463 436.348 206.145 436.698 205.795C437.08 205.445 437.271 204.777 437.271 203.791V180.36C437.271 179.374 437.08 178.706 436.698 178.356C436.348 178.006 435.33 177.688 433.644 177.401L433.93 175.54H456.168C456.359 176.717 456.454 177.895 456.454 179.072C456.454 180.217 456.423 181.521 456.359 182.985L453.639 183.319C453.193 181.123 452.875 179.756 452.684 179.215C452.494 178.642 452.271 178.34 452.016 178.308C451.253 178.213 450.282 178.149 449.105 178.117L441.9 177.974V190.811H449.058C449.471 190.811 449.98 189.682 450.585 187.423L452.064 187.566C452.064 189.888 452.096 191.51 452.159 192.433C452.255 193.356 452.303 193.913 452.303 194.103C452.334 194.294 452.398 194.755 452.494 195.487C452.621 196.219 452.701 196.728 452.732 197.014L451.014 197.301C450.505 195.487 450.155 194.374 449.964 193.96C449.805 193.547 449.614 193.34 449.392 193.34H441.9V206.177L446.147 206.129C449.742 206.129 451.937 205.938 452.732 205.556C452.828 205.493 452.891 205.461 452.923 205.461C453.464 205.302 454.164 203.425 455.023 199.83L457.647 200.069C457.679 200.61 457.695 201.58 457.695 202.98C457.695 204.347 457.52 206.224 457.17 208.611H433.93ZM461.789 202.741C461.789 200.355 462.807 198.573 464.844 197.396C466.879 196.219 470.188 195.614 474.769 195.583V194.056C474.769 189.92 473.274 187.852 470.284 187.852C468.852 187.852 467.945 188.059 467.564 188.472C467.214 188.886 466.832 190.238 466.418 192.529L463.841 192.242C463.587 191.256 463.46 190.238 463.46 189.188C463.46 188.107 463.475 187.406 463.507 187.089C465.384 185.912 467.85 185.323 470.904 185.323C473.958 185.323 476.073 185.912 477.251 187.089C478.459 188.265 479.064 190.207 479.064 192.91V203.886C479.064 204.714 479.255 205.302 479.637 205.652C480.05 205.97 481.069 206.288 482.691 206.606L482.405 208.133L476.678 208.754C476.36 208.754 476.026 208.451 475.676 207.847C475.326 207.243 475.151 206.686 475.151 206.177C475.151 205.636 475.167 205.238 475.199 204.984L474.817 204.841L474.245 205.7C472.749 207.926 470.697 209.04 468.089 209.04C466.307 209.04 464.811 208.483 463.603 207.37C462.394 206.256 461.789 204.714 461.789 202.741ZM466.418 202.311C466.418 203.457 466.72 204.332 467.325 204.936C467.929 205.509 468.788 205.795 469.902 205.795C471.015 205.795 472.272 205.254 473.672 204.173C474.403 203.6 474.769 202.996 474.769 202.359V197.683C471.906 197.746 469.79 198.128 468.423 198.828C467.086 199.528 466.418 200.689 466.418 202.311ZM494.894 187.852C492.094 187.852 490.694 188.807 490.694 190.715C490.694 191.479 490.885 192.051 491.267 192.433C491.649 192.783 491.92 193.054 492.078 193.245C492.269 193.404 492.619 193.61 493.128 193.865C493.638 194.12 493.987 194.31 494.178 194.438C494.401 194.533 494.831 194.708 495.466 194.962C498.139 196.076 500.016 197.126 501.098 198.112C502.18 199.098 502.72 200.498 502.72 202.311C502.72 204.125 501.909 205.7 500.286 207.036C498.696 208.372 496.501 209.04 493.701 209.04C492.46 209.04 491.172 208.913 489.835 208.658C488.499 208.404 487.529 208.149 486.924 207.895C486.861 207.481 486.829 206.638 486.829 205.366C486.829 204.093 486.972 202.709 487.259 201.214L489.74 201.023C489.963 203.059 490.122 204.316 490.217 204.793C490.345 205.238 490.52 205.525 490.742 205.652C491.76 206.225 493.097 206.511 494.751 206.511C497.328 206.511 498.616 205.477 498.616 203.409C498.616 202.423 498.234 201.612 497.471 200.975C496.612 200.276 495.626 199.687 494.512 199.21C491.586 198 489.581 196.903 488.499 195.917C487.449 194.899 486.924 193.499 486.924 191.717C486.924 189.936 487.736 188.425 489.358 187.184C490.981 185.943 492.937 185.323 495.228 185.323C497.518 185.323 499.618 185.721 501.527 186.516C501.559 186.771 501.575 187.486 501.575 188.663C501.575 189.84 501.368 191.081 500.954 192.386L498.759 192.624C498.537 190.143 498.171 188.727 497.662 188.377C497.184 188.027 496.262 187.852 494.894 187.852ZM506.42 214.194C507.183 214.289 508.233 214.337 509.569 214.337C510.937 214.337 512.019 214.162 512.814 213.812C513.609 213.494 514.564 211.76 515.677 208.611L507.756 189.618C507.501 189.014 507.262 188.632 507.04 188.472C506.849 188.313 506.245 188.122 505.227 187.9L505.513 186.039H515.343L515.534 187.9L512.623 188.616C512.401 188.647 512.289 188.775 512.289 188.997C512.289 189.029 512.353 189.236 512.48 189.618L517.348 202.359C517.507 202.805 517.586 203.297 517.586 203.838H517.968L523.026 190.715C523.217 190.207 523.313 189.793 523.313 189.475C523.313 189.124 523.074 188.838 522.597 188.616C522.151 188.393 521.34 188.155 520.163 187.9L520.449 186.039H528.944L529.134 187.9C527.734 188.218 526.987 188.489 526.892 188.711L519.352 207.418C518.715 209.008 518.207 210.217 517.825 211.044C517.443 211.903 516.918 212.858 516.25 213.908C515.582 214.957 514.882 215.769 514.15 216.341C512.337 217.709 510.142 218.616 507.565 219.061C506.737 218.234 506.324 216.93 506.324 215.148C506.324 214.957 506.356 214.639 506.42 214.194Z" fill="#5C5858"/>
</svg>
